<svg width="304" height="448" viewBox="0 0 304 448" fill="none" xmlns="http://www.w3.org/2000/svg">
<path d="M284.979 10.7222C269.065 1.89298 252.854 13.4136 241.248 23.851C237.302 27.4615 233.521 31.2032 229.937 35.1419C226.886 39.2452 223.378 42.9891 219.48 46.3014C211.096 51.9468 201.363 44.4634 192.946 42.5925C186.114 41.204 179.191 40.3045 172.231 39.9011C165.784 39.0687 159.261 39.0026 152.798 39.7042C136.358 42.6253 155.231 65.1742 160.262 70.6883C171.211 82.6356 188.079 94.8455 190.381 111.979C191.039 117.033 190.381 122.186 191.367 127.208C193.323 135.012 196.909 142.316 201.889 148.641C202.81 149.921 204.947 148.641 204.027 147.394C199.49 141.579 196.088 134.966 193.998 127.897C193.369 123.804 193.083 119.665 193.143 115.523C192.452 102.887 185.219 93.3356 176.703 84.3752C167.266 74.2331 154.508 64.4193 149.609 51.0278C148.195 47.1548 148.524 42.6253 153.818 42.0345C154.913 41.967 156.011 41.967 157.106 42.0345C160.196 42.0345 163.32 42.0345 166.411 42.2643C173.558 42.5434 180.683 43.2338 187.751 44.3321C194.175 45.9135 200.508 47.8419 206.723 50.1088C215.107 52.4064 220.861 49.5508 226.451 43.2161C232.633 35.9242 239.348 29.1004 246.541 22.8007C253.907 16.4989 262.982 10.1642 272.846 10.1314C289.615 10.1314 300.236 28.0851 299.611 43.2818C298.923 52.7699 295.834 61.9286 290.634 69.9006C285.932 77.4169 279.784 83.7844 274.457 91.0053C261.601 108.729 275.279 127.733 278.173 146.376C280.96 165.167 277.199 184.343 267.519 200.697C267.519 191.944 264.382 183.48 258.674 176.835C255.253 173.175 251.268 170.083 246.87 167.678C242.365 164.954 237.664 162.131 235.559 157.24C244.864 157.24 254.992 149.855 250.586 139.681C246.476 130.261 235.362 132.066 231.778 140.665C227.109 151.89 231.778 166.267 236.348 176.77C239.182 183.366 242.827 189.584 247.199 195.281C248.317 196.726 249.501 198.203 250.684 199.68C249.092 199.061 247.439 198.61 245.752 198.334C240.49 197.941 235.199 198.205 230.002 199.122C225.192 199.421 220.467 200.531 216.028 202.404C212.662 204.169 210.058 207.103 208.707 210.651C207.357 214.2 207.353 218.119 208.696 221.67C211.721 228.826 220.5 236.736 228.819 235.62C229.06 235.615 229.296 235.541 229.496 235.406C229.696 235.27 229.853 235.08 229.947 234.858C230.041 234.635 230.068 234.39 230.025 234.153C229.983 233.915 229.872 233.695 229.706 233.519C227.668 230.992 219.842 222.885 224.774 220.193C227.24 218.815 231.975 218.552 233.192 221.277C233.816 222.655 234.014 224.099 234.77 225.511C235.999 227.236 236.655 229.302 236.644 231.419C235.91 235.865 235.602 240.371 235.724 244.876L235.526 246.878C235.776 250.163 235.655 253.466 235.165 256.725C233.981 260.237 230.232 260.401 227.109 260.007C222.495 259.318 217.818 259.153 213.167 259.514C207.512 260.433 202.152 262.797 196.727 263.814C181.898 267.096 171.902 256.79 163.123 246.353C162.886 246.134 162.575 246.012 162.251 246.012C161.928 246.012 161.617 246.134 161.38 246.353C153.785 254.394 153.982 266.834 159.67 275.893C160.596 277.492 161.675 278.998 162.893 280.389C156.614 277.174 150.788 273.146 145.564 268.409C140.215 264.016 136.698 257.79 135.7 250.948C134.944 240.051 143.756 231.255 152.141 225.609C158.292 222.06 164.752 219.072 171.442 216.681C177.689 214.056 185.087 210.839 188.277 204.439C192.124 196.726 187.882 187.667 183.575 181.102C177.456 171.462 168.876 163.623 158.717 158.389C157.347 157.589 155.905 156.919 154.409 156.387C152.418 156.224 150.417 156.224 148.425 156.387C143.296 156.19 132.511 154.582 133.695 147.295C135.076 138.991 145.663 137.646 151.549 142.011C155.79 145.293 155.429 150.742 154.837 155.402C154.672 156.978 157.139 156.978 157.303 155.402C158.355 146.54 155.955 139.155 146.255 137.383C143.924 136.819 141.479 136.94 139.215 137.732C136.951 138.524 134.965 139.953 133.497 141.847C132.149 143.355 131.332 145.262 131.172 147.277C131.011 149.293 131.516 151.305 132.609 153.006C135.751 156.273 140.016 158.232 144.545 158.488C146.721 158.813 148.923 158.934 151.121 158.849C151.92 158.77 152.723 158.77 153.522 158.849C154.593 159.197 155.62 159.671 156.58 160.26C169.545 166.343 179.877 176.89 185.679 189.964C186.774 192.162 187.344 194.583 187.344 197.037C187.344 199.492 186.774 201.913 185.679 204.111C183.208 207.635 179.788 210.389 175.815 212.054C168.285 215.861 160.032 218.093 152.798 222.425C143.559 227.907 134.089 236.867 133.3 248.224C133.272 251.904 134.002 255.551 135.445 258.939C136.887 262.327 139.011 265.382 141.685 267.917C148.193 274.476 155.805 279.842 164.175 283.77C146.88 278.42 130.735 269.591 114.591 261.353C105.351 256.626 95.5528 252.72 86.5764 247.469C77.9409 242.347 70.0616 236.05 63.1653 228.76C50.3545 214.727 40.0454 198.608 32.6848 181.102C23.9385 161.409 16.2444 138.86 23.1165 117.46C33.2766 86.443 68.8536 73.6095 94.7637 58.9708C100.419 55.6886 105.68 51.0935 102.819 44.1023C99.6958 36.3891 90.9824 30.6781 84.9981 25.3609C72.4376 14.2341 58.1016 2.12273 40.7406 0.186225C30.5652 -0.772372 20.3874 1.99207 12.1014 7.96509C3.48666 14.1685 1.18501 24.3762 2.23719 34.4198C4.34156 53.2597 21.2752 67.2748 21.2752 86.7384C21.3231 87.0303 21.4734 87.2958 21.6993 87.4873C21.9251 87.6788 22.2118 87.784 22.5082 87.784C22.8046 87.784 23.0913 87.6788 23.3171 87.4873C23.543 87.2958 23.6933 87.0303 23.7412 86.7384C23.7412 70.1303 11.5425 57.8548 6.61034 42.7566C3.61819 33.6321 2.82905 20.9627 9.70113 13.2166C13.4827 9.51549 18.0003 6.64779 22.9619 4.79899C27.9235 2.95019 33.2185 2.16145 38.5047 2.48378C57.2467 3.53409 72.7007 17.6805 85.9516 29.5293C90.8509 33.9274 104.464 42.6582 100.649 50.7981C98.7751 54.6711 94.0732 56.6076 90.5221 58.5769L80.2633 64.0911C55.0437 77.4497 24.7276 92.8761 18.9735 123.762C15.2909 143.455 22.2616 163.148 30.0543 181.234C37.0216 197.833 46.5033 213.264 58.1674 226.988C64.7597 234.503 72.3098 241.124 80.625 246.681C90.0946 252.95 100.715 257.086 110.777 262.206C132.116 273.004 153.291 285.181 177.064 289.744C180.591 291.146 184.233 292.244 187.948 293.026C209.255 297.326 233.981 292.698 249.402 276.615C253.052 272.807 257.622 267.359 256.636 261.648C256.421 260.223 255.825 258.883 254.91 257.768C253.996 256.653 252.797 255.805 251.441 255.313C252.186 254.998 252.972 254.788 253.775 254.69C254.466 254.69 255.057 254.69 255.715 254.46C257.458 253.41 259.003 249.405 259.694 247.6C261.875 242.689 263.177 237.435 263.541 232.075C264.069 226.752 263.836 221.381 262.85 216.124C262.297 213.844 261.469 211.64 260.384 209.559C259.876 207.798 259.076 206.133 258.017 204.636C257.446 203.919 256.795 203.269 256.077 202.699L255.814 202.305C248.416 192.196 241.017 182.973 236.776 170.993C235.057 166.379 233.747 161.624 232.863 156.781C235.724 165.741 245.391 168.794 252.263 174.078C256.9 177.768 260.498 182.597 262.706 188.091C264.913 193.585 265.654 199.558 264.856 205.423C264.856 206.736 266.566 206.933 267.158 206.047C277.2 191.062 282.23 173.287 281.526 155.271C281.006 146.093 279.157 137.039 276.035 128.39C272.517 117.985 268.506 106.596 274.128 96.1912C278.6 87.8872 286.064 81.2571 291.226 73.2156C296.417 65.6615 299.936 57.0909 301.551 48.0738C303.721 34.0259 298 17.8118 284.979 10.7222ZM235.658 221.703C235.562 220.748 235.307 219.816 234.902 218.946C234.451 218.362 233.881 217.881 233.229 217.536C232.576 217.19 231.857 216.988 231.12 216.944C228.161 216.485 222.933 216.944 221.256 219.832C218.691 223.64 223.196 229.417 226.32 233.158C222.666 232.443 219.271 230.762 216.489 228.291C213.707 225.821 211.64 222.65 210.504 219.11C210.105 216.842 210.261 214.512 210.96 212.317C211.658 210.122 212.878 208.129 214.515 206.507C218.639 203.716 223.449 202.105 228.424 201.846C235.822 200.861 248.153 198.826 254.301 204.275C255.497 205.87 256.595 207.536 257.589 209.264C257.589 209.264 257.589 209.264 257.589 209.526C258.414 211.469 258.791 213.571 258.695 215.678C258.598 217.785 258.029 219.844 257.03 221.703C255.795 223.975 254.233 226.054 252.394 227.874C254.104 223.837 255.419 218.388 251.835 217.075C249.435 216.189 246.706 219.012 245.259 220.358C242.566 222.605 240.419 225.433 238.979 228.629C238.772 227.681 238.44 226.765 237.992 225.905C237.07 224.583 236.278 223.176 235.625 221.703H235.658ZM260.088 238.902C259.499 241.461 258.662 243.956 257.589 246.353C256.938 248.431 255.812 250.329 254.301 251.9C253.118 252.655 251.342 252.556 250.027 253.18C248.788 253.791 247.673 254.626 246.739 255.641C245.917 256.495 246.739 258.169 247.922 257.709C248.98 257.313 250.15 257.337 251.19 257.777C252.23 258.216 253.061 259.038 253.512 260.072C254.109 261.291 254.374 262.646 254.282 263.999C254.19 265.353 253.743 266.659 252.986 267.786C251.58 270.319 249.819 272.64 247.758 274.678C244.013 278.623 239.662 281.947 234.869 284.525C224.768 289.76 213.496 292.336 202.119 292.008C193.793 292.039 185.536 290.491 177.788 287.446H177.59L175.815 286.494C173.612 285.471 171.5 284.264 169.502 282.884C159.111 275.499 153.061 259.908 162.038 249.208C169.173 257.611 177.722 266.637 189.46 267.064C196.036 267.293 202.218 264.799 208.433 263.158C211.789 262.134 215.281 261.625 218.79 261.648C221.552 261.648 224.281 262.37 227.043 262.534C230.759 262.764 235 262.337 236.907 258.661C237.849 256.091 238.143 253.33 237.762 250.62C237.767 248.732 237.888 246.847 238.124 244.974C238.354 243.038 238.65 241.068 239.012 239.165C239.403 235.739 240.186 232.369 241.346 229.121C242.827 226.369 244.865 223.955 247.33 222.032C247.922 221.474 249.106 220.062 249.961 220.029C252.164 220.029 251.473 222.064 251.243 223.312C250.762 225.926 249.755 228.415 248.284 230.631C248.171 230.842 248.12 231.081 248.14 231.32C248.159 231.559 248.246 231.787 248.392 231.978C248.538 232.168 248.735 232.312 248.961 232.394C249.187 232.475 249.431 232.49 249.665 232.436C252.379 231.18 254.793 229.358 256.744 227.093C258.695 224.829 260.138 222.174 260.976 219.307C261.882 225.84 261.57 232.483 260.055 238.902H260.088ZM235.329 139.254C239.932 132.394 249.04 136.497 249.238 144.177C249.435 151.858 240.458 155.402 233.849 154.648C233.583 154.634 233.321 154.716 233.11 154.878C232.899 155.041 232.753 155.273 232.699 155.534C231.571 149.968 232.505 144.183 235.329 139.254Z" fill="#46484C"/>
<path d="M26.112 414.664C22.9547 414.664 20.0533 414.365 17.408 413.768C14.7627 413.171 12.5867 412.061 10.88 410.44C9.6 409.245 8.74667 407.923 8.32 406.472C7.89333 404.936 7.68 403.272 7.68 401.48C7.68 398.579 7.936 395.677 8.448 392.776C9.216 387.741 9.89867 382.323 10.496 376.52C11.0933 370.717 11.392 365.341 11.392 360.392C11.392 358.856 11.3067 357.107 11.136 355.144C11.0507 353.181 10.88 351.347 10.624 349.64C10.0267 349.896 9.42933 350.152 8.832 350.408C8.32 350.579 7.85067 350.664 7.424 350.664C6.656 350.664 6.144 350.28 5.888 349.512C5.632 348.744 5.504 347.891 5.504 346.952C5.504 344.477 6.05867 342.387 7.168 340.68C8.36267 338.888 10.2827 337.309 12.928 335.944C15.744 334.408 19.4133 333.085 23.936 331.976C28.544 330.781 33.1947 330.184 37.888 330.184C48.5547 330.184 56.9173 333.341 62.976 339.656C69.12 345.885 72.192 354.76 72.192 366.28C72.192 372.851 71.168 379.08 69.12 384.968C67.1573 390.771 64.2133 395.933 60.288 400.456C56.3627 404.893 51.5413 408.392 45.824 410.952C40.1067 413.427 33.536 414.664 26.112 414.664ZM30.208 400.328C34.048 400.328 37.888 399.731 41.728 398.536C45.568 397.341 49.024 395.549 52.096 393.16C55.2533 390.771 57.7707 387.741 59.648 384.072C61.5253 380.317 62.464 375.837 62.464 370.632C62.464 364.744 61.312 359.88 59.008 356.04C56.704 352.2 53.632 349.341 49.792 347.464C45.952 345.587 41.6853 344.648 36.992 344.648C34.432 344.648 31.872 344.861 29.312 345.288C26.8373 345.715 24.8747 346.141 23.424 346.568C23.3387 350.493 23.0827 354.333 22.656 358.088C22.3147 361.757 21.888 365.341 21.376 368.84C20.864 372.509 20.4373 376.093 20.096 379.592C19.84 383.091 19.712 386.547 19.712 389.96C19.712 394.227 20.5653 397.043 22.272 398.408C24.064 399.688 26.7093 400.328 30.208 400.328ZM89.794 414.408C88.4287 414.408 87.3193 414.152 86.466 413.64C85.698 413.213 85.442 412.445 85.698 411.336C86.6367 407.667 87.4047 403.955 88.002 400.2C88.6847 396.36 89.026 392.691 89.026 389.192C89.026 384.669 88.7273 381.384 88.13 379.336C87.618 377.203 86.8927 375.752 85.954 374.984C85.0153 374.131 83.8633 373.491 82.498 373.064C81.9007 372.808 81.346 372.467 80.834 372.04C80.4073 371.613 80.194 371.016 80.194 370.248C80.194 369.053 80.6633 367.731 81.602 366.28C82.5407 364.829 83.8633 363.592 85.57 362.568C87.2767 361.459 89.2393 360.904 91.458 360.904C94.3593 360.904 96.3647 361.928 97.474 363.976C98.6687 365.939 99.266 368.541 99.266 371.784C100.802 368.371 102.679 365.683 104.898 363.72C107.202 361.672 110.061 360.648 113.474 360.648C115.778 360.648 117.698 361.16 119.234 362.184C120.77 363.208 121.538 364.872 121.538 367.176C121.538 369.48 120.77 371.656 119.234 373.704C117.783 375.667 116.29 376.648 114.754 376.648C114.498 376.648 114.199 376.605 113.858 376.52C113.517 376.435 113.218 376.221 112.962 375.88C111.853 374.515 110.487 373.832 108.866 373.832C106.391 373.832 104.215 375.453 102.338 378.696C100.461 381.939 99.4367 386.419 99.266 392.136C99.3513 394.269 99.394 396.445 99.394 398.664C99.4793 400.883 99.522 402.504 99.522 403.528C99.522 406.685 98.626 409.288 96.834 411.336C95.1273 413.384 92.7807 414.408 89.794 414.408ZM146.338 414.664C140.45 414.664 135.714 413.085 132.13 409.928C128.631 406.685 126.882 401.949 126.882 395.72C126.882 392.819 127.266 390.003 128.034 387.272C128.887 384.541 129.997 381.981 131.362 379.592C129.997 380.445 128.973 380.872 128.29 380.872C127.266 380.872 126.541 380.317 126.114 379.208C125.773 378.013 125.602 376.861 125.602 375.752C125.602 373.789 125.986 372.253 126.754 371.144C127.607 369.949 128.418 369.053 129.186 368.456C130.978 366.92 133.794 365.256 137.634 363.464C141.474 361.587 146.082 360.648 151.458 360.648C158.797 360.648 164.471 362.696 168.482 366.792C172.578 370.888 174.626 376.605 174.626 383.944C174.626 389.661 173.431 394.867 171.042 399.56C168.653 404.168 165.325 407.837 161.058 410.568C156.877 413.299 151.97 414.664 146.338 414.664ZM150.306 401.608C154.573 401.608 158.157 400.285 161.058 397.64C164.045 394.909 165.538 391.325 165.538 386.888C165.538 382.28 164.045 378.995 161.058 377.032C158.071 375.069 154.615 374.088 150.69 374.088C148.898 374.088 147.277 374.259 145.826 374.6C144.375 374.941 143.01 375.368 141.73 375.88C140.535 377.587 139.469 379.507 138.53 381.64C137.591 383.773 137.122 386.12 137.122 388.68C137.122 392.947 138.402 396.189 140.962 398.408C143.522 400.541 146.637 401.608 150.306 401.608ZM204.585 414.664C198.1 414.664 193.022 412.829 189.353 409.16C185.769 405.405 183.977 400.2 183.977 393.544C183.977 387.485 185.3 381.981 187.945 377.032C190.59 372.083 194.132 368.157 198.569 365.256C203.092 362.269 208.041 360.776 213.417 360.776C218.537 360.776 222.633 362.056 225.705 364.616C228.777 367.091 230.313 370.419 230.313 374.6C230.313 377.928 229.289 381 227.241 383.816C225.193 386.632 222.462 388.893 219.049 390.6C215.636 392.221 211.838 393.032 207.657 393.032C202.537 393.032 198.356 391.88 195.113 389.576C195.198 393.501 196.521 396.659 199.081 399.048C201.726 401.437 205.097 402.632 209.193 402.632C211.668 402.632 214.185 402.205 216.745 401.352C219.39 400.413 221.652 399.176 223.529 397.64C224.724 396.616 225.833 396.104 226.857 396.104C227.71 396.104 228.393 396.403 228.905 397C229.502 397.512 229.801 398.195 229.801 399.048C229.801 400.925 228.18 403.4 224.937 406.472C219.22 411.933 212.436 414.664 204.585 414.664ZM206.505 384.584C209.577 384.584 212.137 383.944 214.185 382.664C216.233 381.384 217.257 379.763 217.257 377.8C217.257 376.179 216.574 374.941 215.209 374.088C213.844 373.149 211.966 372.68 209.577 372.68C206.42 372.68 203.646 373.533 201.257 375.24C198.953 376.861 197.289 379.165 196.265 382.152C197.46 382.92 198.996 383.517 200.873 383.944C202.75 384.371 204.628 384.584 206.505 384.584ZM247.282 414.408C244.21 414.408 242.845 413.384 243.186 411.336C244.125 407.667 244.893 403.955 245.49 400.2C246.173 396.36 246.514 392.691 246.514 389.192C246.514 384.669 246.215 381.384 245.618 379.336C245.106 377.203 244.381 375.752 243.442 374.984C242.503 374.131 241.351 373.491 239.986 373.064C239.389 372.808 238.834 372.467 238.322 372.04C237.895 371.613 237.682 371.016 237.682 370.248C237.682 369.053 238.151 367.731 239.09 366.28C240.029 364.829 241.351 363.592 243.058 362.568C244.85 361.459 246.855 360.904 249.074 360.904C251.975 360.904 253.981 361.928 255.09 363.976C256.199 365.939 256.754 368.541 256.754 371.784C256.754 373.917 256.541 376.307 256.114 378.952C255.687 381.597 255.261 383.987 254.834 386.12L255.218 386.248C256.925 381.725 258.973 377.544 261.362 373.704C263.837 369.779 266.695 366.621 269.938 364.232C273.181 361.843 276.935 360.648 281.202 360.648C285.725 360.648 289.181 362.013 291.57 364.744C293.959 367.475 295.154 370.888 295.154 374.984C295.154 376.691 294.941 378.312 294.514 379.848C294.173 381.384 293.789 382.877 293.362 384.328C292.935 385.693 292.551 387.101 292.21 388.552C291.954 390.003 291.826 391.453 291.826 392.904C291.826 397.768 294.13 401.053 298.738 402.76C299.933 403.272 300.53 404.04 300.53 405.064C300.53 405.832 300.274 406.941 299.762 408.392C299.25 409.843 298.311 411.208 296.946 412.488C295.581 413.683 293.575 414.28 290.93 414.28C287.517 414.28 284.871 413.085 282.994 410.696C281.117 408.221 280.178 405.107 280.178 401.352C280.178 399.219 280.391 397.085 280.818 394.952C281.33 392.733 281.842 390.685 282.354 388.808C282.695 387.357 282.994 385.949 283.25 384.584C283.591 383.133 283.762 381.853 283.762 380.744C283.762 376.819 281.714 374.856 277.618 374.856C274.119 374.856 271.047 376.179 268.402 378.824C265.757 381.384 263.495 384.627 261.618 388.552C259.741 392.477 258.205 396.445 257.01 400.456V403.528C257.01 406.685 256.114 409.288 254.322 411.336C252.615 413.384 250.269 414.408 247.282 414.408Z" fill="#46484C"/>
</svg>
